<?xml version="1.0" encoding="utf-8"?>
<!-- Generator: Adobe Illustrator 24.1.2, SVG Export Plug-In . SVG Version: 6.00 Build 0)  -->
<svg version="1.1" id="Capa_1" xmlns="http://www.w3.org/2000/svg" xmlns:xlink="http://www.w3.org/1999/xlink" x="0px" y="0px"
	 viewBox="0 0 512 512" style="enable-background:new 0 0 512 512;" xml:space="preserve">
<style type="text/css">
	.st0{fill:#B0008E;}
	.st1{fill:#81005A;}
	.st2{fill:#9ABADB;}
	.st3{fill:#D1E8FF;}
	.st4{fill:#F5F5FF;}
	.st5{fill:#294B6E;}
	.st6{fill:#6283A3;}
</style>
<circle class="st0" cx="256" cy="256" r="256"/>
<path class="st1" d="M110,345.9l165.4,165.4C407.7,501.4,512,390.9,512,256c0-8-0.4-16-1.1-23.8L402,123.3L110,345.9z"/>
<polygon class="st2" points="299.7,380.1 299.7,345.9 244.6,334.5 256,380.1 "/>
<g>
	<polygon class="st3" points="212.3,380.1 256,380.1 256,334.5 212.3,345.9 	"/>
	<polygon class="st3" points="402,294.5 244.6,283.1 256,345.9 402,345.9 	"/>
</g>
<polygon class="st4" points="110,294.5 110,345.9 256,345.9 256,283.1 "/>
<polygon class="st3" points="325.4,371.6 256,371.6 250.3,380.1 256,388.7 325.4,388.7 "/>
<rect x="186.6" y="371.6" class="st4" width="69.4" height="17.1"/>
<polygon class="st5" points="402,123.3 256,123.3 244.6,208.9 256,294.5 402,294.5 "/>
<rect x="110" y="123.3" class="st6" width="146" height="171.2"/>
<polygon class="st4" points="212,254.2 166.7,208.9 212,163.6 224.1,175.7 190.9,208.9 224.1,242.1 "/>
<g>
	<polygon class="st3" points="300,254.2 287.9,242.1 321.1,208.9 287.9,175.7 300,163.6 345.3,208.9 	"/>
	
		<rect x="201.9" y="200.4" transform="matrix(0.1951 -0.9808 0.9808 0.1951 1.1517 419.2276)" class="st3" width="108.1" height="17.1"/>
</g>
</svg>
