<?xml version="1.0" encoding="utf-8"?>
<!-- Generator: Adobe Illustrator 24.1.2, SVG Export Plug-In . SVG Version: 6.00 Build 0)  -->
<svg version="1.1" id="Layer_1" xmlns="http://www.w3.org/2000/svg" xmlns:xlink="http://www.w3.org/1999/xlink" x="0px" y="0px"
	 viewBox="0 0 512 512" style="enable-background:new 0 0 512 512;" xml:space="preserve">
<style type="text/css">
	.st0{fill:#B0008E;}
	.st1{fill:#FFFFFF;}
</style>
<g id="Capa_1">
	<circle class="st0" cx="256.5" cy="256" r="256"/>
</g>
<g id="Layer_1_1_">
	<path class="st1" d="M212,453.6h88v51.5c-12.2,2-26.9,3.6-43.5,3.7c-17,0-32.1-1.6-44.5-3.7C212,487.4,212,471.3,212,453.6z"/>
	<circle class="st1" cx="256" cy="332" r="20.5"/>
	<path class="st1" d="M218.1,420.4h75.7l42.5-92.2l-74.4-122V300c17.7,3.3,29.3,20.3,26,38s-20.3,29.3-38,26s-29.3-20.3-26-38
		c2.5-13.2,12.8-23.5,26-26v-93.8l-74.4,122L218.1,420.4z"/>
	<path class="st1" d="M220.3,432.4h71.4v9.2h-71.4L220.3,432.4z"/>
	<path class="st1" d="M129,109.2c13.9-0.1,25.7-10,28.4-23.6h49.2c-20.2,14.7-32.8,37.7-34.3,62.6h-16.7c-3.3,0-6,2.7-6,6v48.3
		c0,3.3,2.7,6,6,6h48.3c3.3,0,6-2.7,6-6v-48.3c0-3.3-2.7-6-6-6h-19.7c1.8-26,17.6-49,41.3-60v15.5c0,3.3,2.7,6,6,6h48.3
		c3.3,0,6-2.7,6-6V88.2c23.7,10.9,39.5,33.9,41.3,60h-19.7c-3.3,0-6,2.7-6,6v48.3c0,3.3,2.7,6,6,6h48.3c3.3,0,6-2.7,6-6v-48.3
		c0-3.3-2.7-6-6-6H339c-1.4-25-14-48-34.2-62.6h48.5c3.1,13.5,15.1,23,29,23c16.3,0,29.6-13,29.6-29s-13.3-29-29.6-29
		c-13.8-0.1-25.9,9.5-29,23h-67.6V55.4c0-3.3-2.7-6-6-6h-48.3c-3.3,0-6,2.7-6,6v18.2h-68.2C154.7,60,142.8,50.1,129,50
		c-16,0-29,13.3-29,29.6S113,109.2,129,109.2L129,109.2z"/>
	<path class="st1" d="M243.1,532.4"/>
</g>
</svg>
